<svg width="30" height="30" viewBox="0 0 30 30" fill="none" xmlns="http://www.w3.org/2000/svg">
<path fill-rule="evenodd" clip-rule="evenodd" d="M15 2.5C8.1 2.5 2.5 8.1 2.5 15C2.5 21.9 8.1 27.5 15 27.5C21.9 27.5 27.5 21.9 27.5 15C27.5 8.1 21.9 2.5 15 2.5ZM22.95 21.0375C21.1625 18.8625 16.825 18.125 15 18.125C13.175 18.125 8.8375 18.8625 7.05 21.0375C5.775 19.3625 5 17.275 5 15C5 9.4875 9.4875 5 15 5C20.5125 5 25 9.4875 25 15C25 17.275 24.225 19.3625 22.95 21.0375ZM10.625 11.875C10.625 9.45 12.575 7.5 15 7.5C17.425 7.5 19.375 9.45 19.375 11.875C19.375 14.3 17.425 16.25 15 16.25C12.575 16.25 10.625 14.3 10.625 11.875Z" fill="#79747E"/>
</svg>
