<svg width="24" height="24" viewBox="0 0 24 24" fill="none" xmlns="http://www.w3.org/2000/svg">
<path fill-rule="evenodd" clip-rule="evenodd" d="M4.821 1.60832C7.2195 1.12832 10.374 1.06532 12.531 3.21932C12.6006 3.2891 12.6558 3.37191 12.6933 3.46303C12.7309 3.55414 12.7502 3.65176 12.75 3.75032V20.2503C12.7503 20.3989 12.7064 20.5441 12.624 20.6677C12.5416 20.7913 12.4244 20.8876 12.2872 20.9445C12.15 21.0014 11.999 21.0162 11.8533 20.9872C11.7077 20.9581 11.5739 20.8865 11.469 20.7813C10.2045 19.5153 8.2965 19.1928 6.264 19.4013C4.248 19.6113 2.274 20.3268 1.086 20.9208C0.971656 20.9781 0.84456 21.0052 0.716789 20.9996C0.589019 20.9939 0.464819 20.9557 0.355993 20.8885C0.247167 20.8213 0.157331 20.7274 0.0950232 20.6157C0.0327149 20.504 4.2917e-06 20.3782 0 20.2503L0 3.75032C4.67001e-06 3.61115 0.0387305 3.47473 0.111845 3.35632C0.18496 3.2379 0.289579 3.14217 0.414 3.07982L0.75 3.75032L0.414 3.07982L0.417 3.07832L0.423 3.07532L0.4425 3.06632C0.551237 3.01216 0.661269 2.96065 0.7725 2.91182C2.07074 2.33043 3.42887 1.89331 4.8225 1.60832H4.821ZM1.5 4.23032V19.0923C2.769 18.5778 4.416 18.0843 6.111 17.9103C7.8255 17.7333 9.6915 17.8758 11.25 18.7503V4.07732C9.6555 2.68382 7.3035 2.64332 5.115 3.08132C3.87278 3.33547 2.661 3.72063 1.5 4.23032Z" fill="black"/>
<path fill-rule="evenodd" clip-rule="evenodd" d="M19.179 1.60832C16.782 1.12832 13.626 1.06532 11.469 3.21932C11.3994 3.2891 11.3442 3.37191 11.3067 3.46303C11.2691 3.55414 11.2498 3.65176 11.25 3.75032V20.2503C11.2497 20.3989 11.2936 20.5441 11.376 20.6677C11.4584 20.7913 11.5756 20.8876 11.7128 20.9445C11.85 21.0014 12.001 21.0162 12.1467 20.9872C12.2923 20.9581 12.4261 20.8865 12.531 20.7813C13.7955 19.5153 15.7035 19.1928 17.736 19.4013C19.752 19.6113 21.726 20.3268 22.914 20.9208C23.0283 20.9781 23.1554 21.0052 23.2832 20.9996C23.411 20.9939 23.5352 20.9557 23.644 20.8885C23.7528 20.8213 23.8427 20.7274 23.905 20.6157C23.9673 20.504 24 20.3782 24 20.2503V3.75032C24 3.61115 23.9613 3.47473 23.8882 3.35632C23.815 3.2379 23.7104 3.14217 23.586 3.07982L23.25 3.75032L23.586 3.07982L23.583 3.07832L23.577 3.07532L23.5575 3.06632L23.487 3.03182C23.0935 2.84808 22.6937 2.67798 22.2885 2.52182C21.2792 2.1313 20.2391 1.82574 19.179 1.60832ZM22.5 4.23032V19.0923C21.231 18.5778 19.584 18.0843 17.889 17.9103C16.1745 17.7333 14.3085 17.8758 12.75 18.7503V4.07732C14.3445 2.68382 16.6965 2.64332 18.885 3.08132C20.1272 3.33545 21.339 3.7206 22.5 4.23032Z" fill="black"/>
</svg>
