<svg width="24" height="24" viewBox="0 0 24 24" fill="none" xmlns="http://www.w3.org/2000/svg">
<path fill-rule="evenodd" clip-rule="evenodd" d="M12.2194 17.031C12.1495 16.9613 12.0941 16.8785 12.0563 16.7874C12.0185 16.6963 11.999 16.5986 11.999 16.5C11.999 16.4013 12.0185 16.3036 12.0563 16.2125C12.0941 16.1214 12.1495 16.0386 12.2194 15.969L16.1899 12L12.2194 8.03097C12.0785 7.89014 11.9994 7.69913 11.9994 7.49997C11.9994 7.30081 12.0785 7.1098 12.2194 6.96897C12.3602 6.82814 12.5512 6.74902 12.7504 6.74902C12.9495 6.74902 13.1405 6.82814 13.2814 6.96897L17.7814 11.469C17.8512 11.5386 17.9066 11.6214 17.9444 11.7125C17.9822 11.8036 18.0017 11.9013 18.0017 12C18.0017 12.0986 17.9822 12.1963 17.9444 12.2874C17.9066 12.3785 17.8512 12.4613 17.7814 12.531L13.2814 17.031C13.2117 17.1008 13.1289 17.1562 13.0378 17.194C12.9467 17.2318 12.849 17.2513 12.7504 17.2513C12.6517 17.2513 12.554 17.2318 12.4629 17.194C12.3718 17.1562 12.289 17.1008 12.2194 17.031Z" fill="#083D5E"/>
<path fill-rule="evenodd" clip-rule="evenodd" d="M1.5 12C1.5 11.8011 1.57902 11.6103 1.71967 11.4697C1.86032 11.329 2.05109 11.25 2.25 11.25H15.75C15.9489 11.25 16.1397 11.329 16.2803 11.4697C16.421 11.6103 16.5 11.8011 16.5 12C16.5 12.1989 16.421 12.3897 16.2803 12.5303C16.1397 12.671 15.9489 12.75 15.75 12.75H2.25C2.05109 12.75 1.86032 12.671 1.71967 12.5303C1.57902 12.3897 1.5 12.1989 1.5 12Z" fill="#083D5E"/>
<path fill-rule="evenodd" clip-rule="evenodd" d="M20.25 21.75C20.8467 21.75 21.419 21.5129 21.841 21.091C22.2629 20.669 22.5 20.0967 22.5 19.5V4.5C22.5 3.90326 22.2629 3.33097 21.841 2.90901C21.419 2.48705 20.8467 2.25 20.25 2.25H8.25C7.65326 2.25 7.08097 2.48705 6.65901 2.90901C6.23705 3.33097 6 3.90326 6 4.5V6.75C6 6.94891 6.07902 7.13968 6.21967 7.28033C6.36032 7.42098 6.55109 7.5 6.75 7.5C6.94891 7.5 7.13968 7.42098 7.28033 7.28033C7.42098 7.13968 7.5 6.94891 7.5 6.75V4.5C7.5 4.30109 7.57902 4.11032 7.71967 3.96967C7.86032 3.82902 8.05109 3.75 8.25 3.75H20.25C20.4489 3.75 20.6397 3.82902 20.7803 3.96967C20.921 4.11032 21 4.30109 21 4.5V19.5C21 19.6989 20.921 19.8897 20.7803 20.0303C20.6397 20.171 20.4489 20.25 20.25 20.25H8.25C8.05109 20.25 7.86032 20.171 7.71967 20.0303C7.57902 19.8897 7.5 19.6989 7.5 19.5V17.25C7.5 17.0511 7.42098 16.8603 7.28033 16.7197C7.13968 16.579 6.94891 16.5 6.75 16.5C6.55109 16.5 6.36032 16.579 6.21967 16.7197C6.07902 16.8603 6 17.0511 6 17.25V19.5C6 20.0967 6.23705 20.669 6.65901 21.091C7.08097 21.5129 7.65326 21.75 8.25 21.75H20.25Z" fill="#083D5E"/>
</svg>
