<svg width="30" height="31" viewBox="0 0 30 31" fill="none" xmlns="http://www.w3.org/2000/svg">
<path fill-rule="evenodd" clip-rule="evenodd" d="M8.16396 21.9984C8.25127 21.9084 8.32054 21.8015 8.3678 21.6838C8.41506 21.5661 8.43939 21.4399 8.43939 21.3125C8.43939 21.1851 8.41506 21.0589 8.3678 20.9412C8.32054 20.8235 8.25127 20.7166 8.16396 20.6266L3.20084 15.5L8.16396 10.3734C8.34 10.1915 8.4389 9.94476 8.4389 9.6875C8.4389 9.43025 8.34 9.18353 8.16396 9.00163C7.98792 8.81972 7.74917 8.71753 7.50021 8.71753C7.25126 8.71753 7.0125 8.81972 6.83646 9.00163L1.21146 14.8141C1.12415 14.9041 1.05489 15.011 1.00762 15.1287C0.960363 15.2464 0.936035 15.3726 0.936035 15.5C0.936035 15.6274 0.960363 15.7536 1.00762 15.8713C1.05489 15.989 1.12415 16.0959 1.21146 16.1859L6.83646 21.9984C6.92355 22.0886 7.027 22.1602 7.1409 22.209C7.2548 22.2578 7.3769 22.283 7.50021 22.283C7.62352 22.283 7.74563 22.2578 7.85952 22.209C7.97342 22.1602 8.07688 22.0886 8.16396 21.9984Z" fill="black"/>
<path fill-rule="evenodd" clip-rule="evenodd" d="M21.5625 15.5C21.5625 15.2431 21.4637 14.9967 21.2879 14.815C21.1121 14.6333 20.8736 14.5312 20.625 14.5312H3.75C3.50136 14.5312 3.2629 14.6333 3.08709 14.815C2.91127 14.9967 2.8125 15.2431 2.8125 15.5C2.8125 15.7569 2.91127 16.0033 3.08709 16.185C3.2629 16.3667 3.50136 16.4688 3.75 16.4688H20.625C20.8736 16.4688 21.1121 16.3667 21.2879 16.185C21.4637 16.0033 21.5625 15.7569 21.5625 15.5Z" fill="white"/>
<path fill-rule="evenodd" clip-rule="evenodd" d="M26.25 26.1562C26.9959 26.1562 27.7113 25.8501 28.2387 25.305C28.7662 24.76 29.0625 24.0208 29.0625 23.25V7.75C29.0625 6.97921 28.7662 6.24 28.2387 5.69497C27.7113 5.14994 26.9959 4.84375 26.25 4.84375H13.125C12.3791 4.84375 11.6637 5.14994 11.1363 5.69497C10.6088 6.24 10.3125 6.97921 10.3125 7.75V10.6562C10.3125 10.9132 10.4113 11.1596 10.5871 11.3413C10.7629 11.5229 11.0014 11.625 11.25 11.625C11.4986 11.625 11.7371 11.5229 11.9129 11.3413C12.0887 11.1596 12.1875 10.9132 12.1875 10.6562V7.75C12.1875 7.49307 12.2863 7.24667 12.4621 7.06499C12.6379 6.88331 12.8764 6.78125 13.125 6.78125H26.25C26.4986 6.78125 26.7371 6.88331 26.9129 7.06499C27.0887 7.24667 27.1875 7.49307 27.1875 7.75V23.25C27.1875 23.5069 27.0887 23.7533 26.9129 23.935C26.7371 24.1167 26.4986 24.2188 26.25 24.2188H13.125C12.8764 24.2188 12.6379 24.1167 12.4621 23.935C12.2863 23.7533 12.1875 23.5069 12.1875 23.25V20.3438C12.1875 20.0868 12.0887 19.8404 11.9129 19.6587C11.7371 19.4771 11.4986 19.375 11.25 19.375C11.0014 19.375 10.7629 19.4771 10.5871 19.6587C10.4113 19.8404 10.3125 20.0868 10.3125 20.3438V23.25C10.3125 24.0208 10.6088 24.76 11.1363 25.305C11.6637 25.8501 12.3791 26.1562 13.125 26.1562H26.25Z" fill="black"/>
</svg>
