<svg width="28" height="29" viewBox="0 0 28 29" fill="none" xmlns="http://www.w3.org/2000/svg">
<path fill-rule="evenodd" clip-rule="evenodd" d="M26.7487 0.161229C26.8649 0.244684 26.9598 0.356043 27.0253 0.485776C27.0909 0.615509 27.125 0.759754 27.125 0.906166V28.0937C27.125 28.334 27.0328 28.5645 26.8687 28.7345C26.7046 28.9044 26.4821 28.9999 26.25 28.9999H21C20.7679 28.9999 20.5454 28.9044 20.3813 28.7345C20.2172 28.5645 20.125 28.334 20.125 28.0937V25.3749H18.375V28.0937C18.375 28.334 18.2828 28.5645 18.1187 28.7345C17.9546 28.9044 17.7321 28.9999 17.5 28.9999H1.75C1.51794 28.9999 1.29538 28.9044 1.13128 28.7345C0.967187 28.5645 0.875 28.334 0.875 28.0937V17.2187C0.875095 17.0042 0.948658 16.7966 1.0826 16.633C1.21655 16.4694 1.40219 16.3603 1.6065 16.3251L11.375 14.6395V6.34367C11.375 6.15933 11.4293 5.97938 11.5306 5.82782C11.6319 5.67626 11.7754 5.5603 11.942 5.49542L25.942 0.0579162C26.0743 0.00655923 26.2166 -0.0108683 26.3568 0.0071227C26.4969 0.0251137 26.6308 0.0779885 26.747 0.161229H26.7487ZM13.125 6.97079V15.4062C13.1249 15.6207 13.0513 15.8282 12.9174 15.9918C12.7835 16.1554 12.5978 16.2645 12.3935 16.2997L2.625 17.9854V27.1874H16.625V24.4687C16.625 24.2283 16.7172 23.9978 16.8813 23.8279C17.0454 23.6579 17.2679 23.5624 17.5 23.5624H21C21.2321 23.5624 21.4546 23.6579 21.6187 23.8279C21.7828 23.9978 21.875 24.2283 21.875 24.4687V27.1874H25.375V2.21479L13.125 6.97079Z" fill="white"/>
<path fill-rule="evenodd" clip-rule="evenodd" d="M11.375 28.0938V15.4062H13.125V28.0938H11.375Z" fill="white"/>
<path d="M4.375 19.9375H6.125V21.75H4.375V19.9375ZM7.875 19.9375H9.625V21.75H7.875V19.9375ZM4.375 23.5625H6.125V25.375H4.375V23.5625ZM7.875 23.5625H9.625V25.375H7.875V23.5625ZM18.375 5.4375H20.125V7.25H18.375V5.4375ZM21.875 5.4375H23.625V7.25H21.875V5.4375ZM14.875 9.0625H16.625V10.875H14.875V9.0625ZM18.375 9.0625H20.125V10.875H18.375V9.0625ZM21.875 9.0625H23.625V10.875H21.875V9.0625ZM18.375 12.6875H20.125V14.5H18.375V12.6875ZM21.875 12.6875H23.625V14.5H21.875V12.6875ZM14.875 12.6875H16.625V14.5H14.875V12.6875ZM14.875 16.3125H16.625V18.125H14.875V16.3125ZM18.375 16.3125H20.125V18.125H18.375V16.3125ZM21.875 16.3125H23.625V18.125H21.875V16.3125ZM14.875 19.9375H16.625V21.75H14.875V19.9375ZM18.375 19.9375H20.125V21.75H18.375V19.9375ZM21.875 19.9375H23.625V21.75H21.875V19.9375Z" fill="white"/>
</svg>
