<svg width="24" height="24" viewBox="0 0 24 24" fill="none" xmlns="http://www.w3.org/2000/svg">
<g clip-path="url(#clip0_1107_15653)">
<path fill-rule="evenodd" clip-rule="evenodd" d="M21.75 4.5H2.25C2.05109 4.5 1.86032 4.57902 1.71967 4.71967C1.57902 4.86032 1.5 5.05109 1.5 5.25V18.75C1.5 18.9489 1.57902 19.1397 1.71967 19.2803C1.86032 19.421 2.05109 19.5 2.25 19.5H21.75C21.9489 19.5 22.1397 19.421 22.2803 19.2803C22.421 19.1397 22.5 18.9489 22.5 18.75V5.25C22.5 5.05109 22.421 4.86032 22.2803 4.71967C22.1397 4.57902 21.9489 4.5 21.75 4.5ZM2.25 3C1.65326 3 1.08097 3.23705 0.65901 3.65901C0.237053 4.08097 0 4.65326 0 5.25L0 18.75C0 19.3467 0.237053 19.919 0.65901 20.341C1.08097 20.7629 1.65326 21 2.25 21H21.75C22.3467 21 22.919 20.7629 23.341 20.341C23.7629 19.919 24 19.3467 24 18.75V5.25C24 4.65326 23.7629 4.08097 23.341 3.65901C22.919 3.23705 22.3467 3 21.75 3H2.25Z" fill="black"/>
<path fill-rule="evenodd" clip-rule="evenodd" d="M10.5001 8.24939C10.5001 8.05048 10.5791 7.85971 10.7197 7.71906C10.8604 7.57841 11.0512 7.49939 11.2501 7.49939H18.7501C18.949 7.49939 19.1397 7.57841 19.2804 7.71906C19.4211 7.85971 19.5001 8.05048 19.5001 8.24939C19.5001 8.4483 19.4211 8.63907 19.2804 8.77972C19.1397 8.92037 18.949 8.99939 18.7501 8.99939H11.2501C11.0512 8.99939 10.8604 8.92037 10.7197 8.77972C10.5791 8.63907 10.5001 8.4483 10.5001 8.24939ZM8.25607 6.96839C8.32591 7.03806 8.38133 7.12082 8.41914 7.21194C8.45695 7.30305 8.47641 7.40074 8.47641 7.49939C8.47641 7.59804 8.45695 7.69572 8.41914 7.78684C8.38133 7.87796 8.32591 7.96072 8.25607 8.03039L6.00607 10.2804C5.9364 10.3502 5.85364 10.4056 5.76252 10.4435C5.6714 10.4813 5.57372 10.5007 5.47507 10.5007C5.37642 10.5007 5.27874 10.4813 5.18762 10.4435C5.0965 10.4056 5.01374 10.3502 4.94407 10.2804L4.19407 9.53039C4.12434 9.46066 4.06902 9.37787 4.03128 9.28676C3.99354 9.19565 3.97412 9.098 3.97412 8.99939C3.97412 8.80022 4.05324 8.60922 4.19407 8.46839C4.3349 8.32756 4.52591 8.24844 4.72507 8.24844C4.92423 8.24844 5.11524 8.32756 5.25607 8.46839L5.47507 8.68889L7.19407 6.96839C7.26374 6.89854 7.3465 6.84313 7.43762 6.80532C7.52874 6.76751 7.62642 6.74805 7.72507 6.74805C7.82372 6.74805 7.9214 6.76751 8.01252 6.80532C8.10364 6.84313 8.1864 6.89854 8.25607 6.96839ZM10.5001 14.2494C10.5001 14.0505 10.5791 13.8597 10.7197 13.7191C10.8604 13.5784 11.0512 13.4994 11.2501 13.4994H18.7501C18.949 13.4994 19.1397 13.5784 19.2804 13.7191C19.4211 13.8597 19.5001 14.0505 19.5001 14.2494C19.5001 14.4483 19.4211 14.6391 19.2804 14.7797C19.1397 14.9204 18.949 14.9994 18.7501 14.9994H11.2501C11.0512 14.9994 10.8604 14.9204 10.7197 14.7797C10.5791 14.6391 10.5001 14.4483 10.5001 14.2494ZM8.25607 12.9684C8.32591 13.0381 8.38133 13.1208 8.41914 13.2119C8.45695 13.3031 8.47641 13.4007 8.47641 13.4994C8.47641 13.598 8.45695 13.6957 8.41914 13.7868C8.38133 13.878 8.32591 13.9607 8.25607 14.0304L6.00607 16.2804C5.9364 16.3502 5.85364 16.4056 5.76252 16.4435C5.6714 16.4813 5.57372 16.5007 5.47507 16.5007C5.37642 16.5007 5.27874 16.4813 5.18762 16.4435C5.0965 16.4056 5.01374 16.3502 4.94407 16.2804L4.19407 15.5304C4.12434 15.4607 4.06902 15.3779 4.03128 15.2868C3.99354 15.1957 3.97412 15.098 3.97412 14.9994C3.97412 14.9008 3.99354 14.8031 4.03128 14.712C4.06902 14.6209 4.12434 14.5381 4.19407 14.4684C4.2638 14.3987 4.34658 14.3433 4.43769 14.3056C4.5288 14.2679 4.62645 14.2484 4.72507 14.2484C4.82368 14.2484 4.92133 14.2679 5.01244 14.3056C5.10355 14.3433 5.18634 14.3987 5.25607 14.4684L5.47507 14.6889L7.19407 12.9684C7.26374 12.8985 7.3465 12.8431 7.43762 12.8053C7.52874 12.7675 7.62642 12.748 7.72507 12.748C7.82372 12.748 7.9214 12.7675 8.01252 12.8053C8.10364 12.8431 8.1864 12.8985 8.25607 12.9684Z" fill="black"/>
</g>
<defs>
<clipPath id="clip0_1107_15653">
<rect width="24" height="24" fill="white"/>
</clipPath>
</defs>
</svg>
