<svg width="24" height="24" viewBox="0 0 24 24" fill="none" xmlns="http://www.w3.org/2000/svg">
<g clip-path="url(#clip0_1282_14679)">
<path fill-rule="evenodd" clip-rule="evenodd" d="M0.364258 10.3934L1.13526 9.10645L11.9998 15.6254L22.8643 9.10645L23.6353 10.3934L11.9998 17.3744L0.364258 10.3949V10.3934Z" fill="white"/>
<path fill-rule="evenodd" clip-rule="evenodd" d="M10.7761 16.0196L1.12807 21.6476L0.37207 20.3516L10.0201 14.7236L10.7761 16.0196ZM13.2241 16.0196L22.8721 21.6476L23.6281 20.3516L13.9801 14.7236L13.2241 16.0196Z" fill="white"/>
<path fill-rule="evenodd" clip-rule="evenodd" d="M12.705 1.9771C12.488 1.86154 12.2459 1.8011 12 1.8011C11.7541 1.8011 11.512 1.86154 11.295 1.9771L2.295 6.7771C2.05503 6.90488 1.8543 7.09547 1.71428 7.3285C1.57425 7.56153 1.50018 7.82824 1.5 8.1001V21.0001C1.5 21.3979 1.65804 21.7795 1.93934 22.0608C2.22064 22.3421 2.60218 22.5001 3 22.5001H21C21.3978 22.5001 21.7794 22.3421 22.0607 22.0608C22.342 21.7795 22.5 21.3979 22.5 21.0001V8.1001C22.4998 7.82824 22.4258 7.56153 22.2857 7.3285C22.1457 7.09547 21.945 6.90488 21.705 6.7771L12.705 1.9771ZM10.59 0.652605C11.0244 0.420968 11.5092 0.299805 12.0015 0.299805C12.4938 0.299805 12.9786 0.420968 13.413 0.652605L22.413 5.4526C22.8926 5.70868 23.2936 6.09027 23.5731 6.55659C23.8526 7.02291 24.0002 7.55642 24 8.1001V21.0001C24 21.7958 23.6839 22.5588 23.1213 23.1214C22.5587 23.684 21.7956 24.0001 21 24.0001H3C2.20435 24.0001 1.44129 23.684 0.87868 23.1214C0.316071 22.5588 1.50058e-08 21.7958 1.50058e-08 21.0001V8.1001C-5.437e-05 7.55627 0.147721 7.02265 0.427521 6.55632C0.707321 6.08998 1.10862 5.70848 1.5885 5.4526L10.5885 0.652605H10.59Z" fill="white"/>
</g>
<defs>
<clipPath id="clip0_1282_14679">
<rect width="24" height="24" fill="white"/>
</clipPath>
</defs>
</svg>
