<svg width="80" height="82" viewBox="0 0 80 82" fill="none" xmlns="http://www.w3.org/2000/svg">
<g clip-path="url(#clip0_1214_14413)">
<path fill-rule="evenodd" clip-rule="evenodd" d="M39.6905 10.3319C39.5761 10.4022 39.4828 10.5032 39.4205 10.6241L5.13546 70.4174C5.05005 70.5578 5.00394 70.7195 5.00218 70.8849C5.00042 71.0503 5.04307 71.2131 5.12546 71.3553C5.20546 71.5091 5.31046 71.6116 5.39546 71.6628C5.47046 71.7141 5.56546 71.7499 5.72546 71.7499H74.2905C74.4064 71.7542 74.521 71.7239 74.6205 71.6628C74.736 71.5858 74.8306 71.48 74.8955 71.3553C74.9771 71.2126 75.0189 71.0496 75.0163 70.8842C75.0136 70.7188 74.9666 70.5573 74.8805 70.4174L40.6005 10.6241C40.5382 10.5032 40.4448 10.4022 40.3305 10.3319C40.2325 10.2769 40.1222 10.2486 40.0105 10.2499C39.8987 10.2486 39.7885 10.2769 39.6905 10.3319ZM44.9105 8.02569C44.4155 7.14195 43.7018 6.40772 42.8415 5.89713C41.9812 5.38654 41.0046 5.11768 40.0105 5.11768C39.0163 5.11768 38.0398 5.38654 37.1794 5.89713C36.3191 6.40772 35.6054 7.14195 35.1105 8.02569L0.825462 67.8191C-1.45954 71.8063 1.28046 76.8749 5.72546 76.8749H74.2905C78.7355 76.8749 81.4805 71.8012 79.1905 67.8191L44.9105 8.02569Z" fill="#9B7C49"/>
<path d="M35.0098 61.4997C35.0098 60.8267 35.1391 60.1603 35.3904 59.5385C35.6416 58.9167 36.0099 58.3517 36.4742 57.8758C36.9385 57.3999 37.4897 57.0224 38.0963 56.7649C38.703 56.5073 39.3532 56.3747 40.0098 56.3747C40.6664 56.3747 41.3166 56.5073 41.9232 56.7649C42.5298 57.0224 43.081 57.3999 43.5453 57.8758C44.0096 58.3517 44.3779 58.9167 44.6292 59.5385C44.8804 60.1603 45.0098 60.8267 45.0098 61.4997C45.0098 62.859 44.483 64.1625 43.5453 65.1237C42.6076 66.0848 41.3358 66.6247 40.0098 66.6247C38.6837 66.6247 37.4119 66.0848 36.4742 65.1237C35.5366 64.1625 35.0098 62.859 35.0098 61.4997ZM35.4998 30.7241C35.4332 30.0776 35.5 29.4239 35.6958 28.8055C35.8916 28.1871 36.212 27.6178 36.6364 27.1345C37.0607 26.6512 37.5794 26.2648 38.1588 26.0003C38.7383 25.7358 39.3655 25.5991 39.9998 25.5991C40.6341 25.5991 41.2613 25.7358 41.8407 26.0003C42.4201 26.2648 42.9388 26.6512 43.3632 27.1345C43.7875 27.6178 44.108 28.1871 44.3038 28.8055C44.4996 29.4239 44.5663 30.0776 44.4998 30.7241L42.7498 48.6975C42.691 49.4036 42.3758 50.0613 41.8665 50.5406C41.3573 51.0199 40.6911 51.2859 39.9998 51.2859C39.3084 51.2859 38.6422 51.0199 38.133 50.5406C37.6238 50.0613 37.3086 49.4036 37.2498 48.6975L35.4998 30.7241Z" fill="#9B7C49"/>
</g>
<defs>
<clipPath id="clip0_1214_14413">
<rect width="80" height="82" fill="white"/>
</clipPath>
</defs>
</svg>
