<svg width="76" height="76" viewBox="0 0 76 76" fill="none" xmlns="http://www.w3.org/2000/svg">
<path d="M19 4.75H42.75V9.5H19C17.7402 9.5 16.532 10.0004 15.6412 10.8912C14.7504 11.782 14.25 12.9902 14.25 14.25V61.75C14.25 63.0098 14.7504 64.218 15.6412 65.1088C16.532 65.9996 17.7402 66.5 19 66.5H57C58.2598 66.5 59.468 65.9996 60.3588 65.1088C61.2496 64.218 61.75 63.0098 61.75 61.75V28.5H66.5V61.75C66.5 64.2696 65.4991 66.6859 63.7175 68.4675C61.9359 70.2491 59.5196 71.25 57 71.25H19C16.4804 71.25 14.0641 70.2491 12.2825 68.4675C10.5009 66.6859 9.5 64.2696 9.5 61.75V14.25C9.5 11.7304 10.5009 9.31408 12.2825 7.53249C14.0641 5.75089 16.4804 4.75 19 4.75V4.75Z" fill="#083D5E"/>
<path d="M42.75 21.375V4.75L66.5 28.5H49.875C47.9853 28.5 46.1731 27.7493 44.8369 26.4131C43.5007 25.0769 42.75 23.2647 42.75 21.375Z" fill="#083D5E"/>
<path fill-rule="evenodd" clip-rule="evenodd" d="M26.8188 42.0568C27.0395 42.278 27.3015 42.4535 27.5901 42.5732C27.8786 42.693 28.1879 42.7546 28.5003 42.7546C28.8127 42.7546 29.1221 42.693 29.4106 42.5732C29.6991 42.4535 29.9612 42.278 30.1818 42.0568L38.0003 34.2336L45.8188 42.0568C46.2648 42.5028 46.8697 42.7533 47.5003 42.7533C48.131 42.7533 48.7359 42.5028 49.1818 42.0568C49.6278 41.6109 49.8783 41.006 49.8783 40.3753C49.8783 39.7447 49.6278 39.1398 49.1818 38.6938L39.6818 29.1938C39.4612 28.9727 39.1991 28.7972 38.9106 28.6775C38.6221 28.5577 38.3127 28.4961 38.0003 28.4961C37.6879 28.4961 37.3786 28.5577 37.0901 28.6775C36.8015 28.7972 36.5395 28.9727 36.3188 29.1938L26.8188 38.6938C26.5977 38.9145 26.4222 39.1765 26.3025 39.4651C26.1827 39.7536 26.1211 40.0629 26.1211 40.3753C26.1211 40.6877 26.1827 40.9971 26.3025 41.2856C26.4222 41.5741 26.5977 41.8362 26.8188 42.0568V42.0568Z" fill="#083D5E"/>
<path fill-rule="evenodd" clip-rule="evenodd" d="M38 57C38.6299 57 39.234 56.7498 39.6794 56.3044C40.1248 55.859 40.375 55.2549 40.375 54.625V35.625C40.375 34.9951 40.1248 34.391 39.6794 33.9456C39.234 33.5002 38.6299 33.25 38 33.25C37.3701 33.25 36.766 33.5002 36.3206 33.9456C35.8752 34.391 35.625 34.9951 35.625 35.625V54.625C35.625 55.2549 35.8752 55.859 36.3206 56.3044C36.766 56.7498 37.3701 57 38 57Z" fill="#083D5E"/>
</svg>
