<svg width="24" height="24" viewBox="0 0 24 24" fill="none" xmlns="http://www.w3.org/2000/svg">
<path d="M6 1.5H13.5V3H6C5.60218 3 5.22064 3.15804 4.93934 3.43934C4.65804 3.72064 4.5 4.10218 4.5 4.5V19.5C4.5 19.8978 4.65804 20.2794 4.93934 20.5607C5.22064 20.842 5.60218 21 6 21H18C18.3978 21 18.7794 20.842 19.0607 20.5607C19.342 20.2794 19.5 19.8978 19.5 19.5V9H21V19.5C21 20.2956 20.6839 21.0587 20.1213 21.6213C19.5587 22.1839 18.7956 22.5 18 22.5H6C5.20435 22.5 4.44129 22.1839 3.87868 21.6213C3.31607 21.0587 3 20.2956 3 19.5V4.5C3 3.70435 3.31607 2.94129 3.87868 2.37868C4.44129 1.81607 5.20435 1.5 6 1.5Z" fill="black"/>
<path d="M13.5 6.75V1.5L21 9H15.75C15.1533 9 14.581 8.76295 14.159 8.34099C13.7371 7.91903 13.5 7.34674 13.5 6.75Z" fill="black"/>
<path fill-rule="evenodd" clip-rule="evenodd" d="M8.46839 13.7184C8.53806 13.6485 8.62082 13.5931 8.71194 13.5553C8.80305 13.5175 8.90074 13.498 8.99939 13.498C9.09804 13.498 9.19572 13.5175 9.28684 13.5553C9.37796 13.5931 9.46072 13.6485 9.53039 13.7184L11.9994 16.1889L14.4684 13.7184C14.6092 13.5776 14.8002 13.4984 14.9994 13.4984C15.1986 13.4984 15.3896 13.5776 15.5304 13.7184C15.6712 13.8592 15.7503 14.0502 15.7503 14.2494C15.7503 14.4486 15.6712 14.6396 15.5304 14.7804L12.5304 17.7804C12.4607 17.8502 12.378 17.9056 12.2868 17.9435C12.1957 17.9813 12.098 18.0007 11.9994 18.0007C11.9007 18.0007 11.8031 17.9813 11.7119 17.9435C11.6208 17.9056 11.5381 17.8502 11.4684 17.7804L8.46839 14.7804C8.39854 14.7107 8.34313 14.628 8.30532 14.5368C8.26751 14.4457 8.24805 14.348 8.24805 14.2494C8.24805 14.1507 8.26751 14.0531 8.30532 13.9619C8.34313 13.8708 8.39854 13.7881 8.46839 13.7184Z" fill="black"/>
<path fill-rule="evenodd" clip-rule="evenodd" d="M12 9C12.1989 9 12.3897 9.07902 12.5303 9.21967C12.671 9.36032 12.75 9.55109 12.75 9.75V15.75C12.75 15.9489 12.671 16.1397 12.5303 16.2803C12.3897 16.421 12.1989 16.5 12 16.5C11.8011 16.5 11.6103 16.421 11.4697 16.2803C11.329 16.1397 11.25 15.9489 11.25 15.75V9.75C11.25 9.55109 11.329 9.36032 11.4697 9.21967C11.6103 9.07902 11.8011 9 12 9Z" fill="black"/>
</svg>
