<svg width="46" height="44" viewBox="0 0 46 44" fill="none" xmlns="http://www.w3.org/2000/svg">
<path fill-rule="evenodd" clip-rule="evenodd" d="M23 9.05575L40.25 25.5557V37.125C40.25 38.219 39.7957 39.2682 38.9869 40.0418C38.1781 40.8154 37.0812 41.25 35.9375 41.25H10.0625C8.91875 41.25 7.82185 40.8154 7.0131 40.0418C6.20435 39.2682 5.75 38.219 5.75 37.125V25.5557L23 9.05575ZM37.375 6.875V16.5L31.625 11V6.875C31.625 6.51033 31.7764 6.16059 32.046 5.90273C32.3156 5.64487 32.6813 5.5 33.0625 5.5H35.9375C36.3187 5.5 36.6844 5.64487 36.954 5.90273C37.2236 6.16059 37.375 6.51033 37.375 6.875Z" fill="black"/>
<path fill-rule="evenodd" clip-rule="evenodd" d="M20.9672 4.12499C21.5064 3.60944 22.2375 3.31982 22.9999 3.31982C23.7622 3.31982 24.4933 3.60944 25.0325 4.12499L44.1426 22.4015C44.4125 22.6597 44.5642 23.0099 44.5642 23.375C44.5642 23.7401 44.4125 24.0903 44.1426 24.3485C43.8727 24.6067 43.5066 24.7517 43.1249 24.7517C42.7431 24.7517 42.377 24.6067 42.1071 24.3485L22.9999 6.06924L3.89261 24.3485C3.62269 24.6067 3.25659 24.7517 2.87486 24.7517C2.49313 24.7517 2.12704 24.6067 1.85711 24.3485C1.58719 24.0903 1.43555 23.7401 1.43555 23.375C1.43555 23.0099 1.58719 22.6597 1.85711 22.4015L20.9672 4.12499Z" fill="black"/>
</svg>
