<svg width="19" height="19" viewBox="0 0 19 19" fill="none" xmlns="http://www.w3.org/2000/svg">
<path fill-rule="evenodd" clip-rule="evenodd" d="M2.375 16.0312V8.3125H3.5625V16.0312C3.5625 16.1887 3.62506 16.3397 3.73641 16.4511C3.84776 16.5624 3.99878 16.625 4.15625 16.625H14.8438C15.0012 16.625 15.1522 16.5624 15.2636 16.4511C15.3749 16.3397 15.4375 16.1887 15.4375 16.0312V8.3125H16.625V16.0312C16.625 16.5037 16.4373 16.9567 16.1033 17.2908C15.7692 17.6248 15.3162 17.8125 14.8438 17.8125H4.15625C3.68383 17.8125 3.23077 17.6248 2.89672 17.2908C2.56267 16.9567 2.375 16.5037 2.375 16.0312V16.0312ZM15.4375 2.96875V7.125L13.0625 4.75V2.96875C13.0625 2.81128 13.1251 2.66026 13.2364 2.54891C13.3478 2.43756 13.4988 2.375 13.6562 2.375H14.8438C15.0012 2.375 15.1522 2.43756 15.2636 2.54891C15.3749 2.66026 15.4375 2.81128 15.4375 2.96875Z" fill="white"/>
<path fill-rule="evenodd" clip-rule="evenodd" d="M8.66021 1.78128C8.8829 1.55866 9.18489 1.43359 9.49977 1.43359C9.81466 1.43359 10.1166 1.55866 10.3393 1.78128L18.2326 9.6734C18.3441 9.78489 18.4068 9.93611 18.4068 10.0938C18.4068 10.2514 18.3441 10.4027 18.2326 10.5142C18.1212 10.6256 17.9699 10.6883 17.8123 10.6883C17.6546 10.6883 17.5034 10.6256 17.3919 10.5142L9.49977 2.62084L1.60765 10.5142C1.49616 10.6256 1.34494 10.6883 1.18727 10.6883C1.0296 10.6883 0.878389 10.6256 0.766898 10.5142C0.655408 10.4027 0.592773 10.2514 0.592773 10.0938C0.592773 9.93611 0.655408 9.78489 0.766898 9.6734L8.66021 1.78128Z" fill="white"/>
</svg>
