<svg width="88" height="90" viewBox="0 0 88 90" fill="none" xmlns="http://www.w3.org/2000/svg">
<g clip-path="url(#clip0_1200_14847)">
<path fill-rule="evenodd" clip-rule="evenodd" d="M44 84.375C54.2108 84.375 64.0035 80.2266 71.2236 72.8423C78.4438 65.4581 82.5 55.4429 82.5 45C82.5 34.5571 78.4438 24.5419 71.2236 17.1577C64.0035 9.77343 54.2108 5.625 44 5.625C33.7892 5.625 23.9965 9.77343 16.7764 17.1577C9.55624 24.5419 5.5 34.5571 5.5 45C5.5 55.4429 9.55624 65.4581 16.7764 72.8423C23.9965 80.2266 33.7892 84.375 44 84.375V84.375ZM44 90C55.6695 90 66.8611 85.2589 75.1127 76.8198C83.3643 68.3807 88 56.9347 88 45C88 33.0653 83.3643 21.6193 75.1127 13.1802C66.8611 4.74106 55.6695 0 44 0C32.3305 0 21.1389 4.74106 12.8873 13.1802C4.6357 21.6193 0 33.0653 0 45C0 56.9347 4.6357 68.3807 12.8873 76.8198C21.1389 85.2589 32.3305 90 44 90V90Z" fill="#083D5E"/>
<path d="M49.1147 37.0576L36.5197 38.672L36.0687 40.8095L38.5437 41.2764C40.1607 41.6701 40.4797 42.2664 40.1277 43.9145L36.0687 63.422C35.0017 68.4676 36.6462 70.8414 40.5127 70.8414C43.5102 70.8414 46.9917 69.4239 48.5702 67.4776L49.0542 65.1376C47.9542 66.1276 46.3482 66.5214 45.2812 66.5214C43.7687 66.5214 43.2187 65.4357 43.6092 63.5232L49.1147 37.0576Z" fill="#083D5E"/>
<path d="M44 30.9375C47.0376 30.9375 49.5 28.4191 49.5 25.3125C49.5 22.2059 47.0376 19.6875 44 19.6875C40.9624 19.6875 38.5 22.2059 38.5 25.3125C38.5 28.4191 40.9624 30.9375 44 30.9375Z" fill="#083D5E"/>
</g>
<defs>
<clipPath id="clip0_1200_14847">
<rect width="88" height="90" fill="white"/>
</clipPath>
</defs>
</svg>
