<svg width="29" height="28" viewBox="0 0 29 28" fill="none" xmlns="http://www.w3.org/2000/svg">
<path fill-rule="evenodd" clip-rule="evenodd" d="M3.625 1.75H25.375C25.8557 1.75 26.3167 1.93437 26.6566 2.26256C26.9965 2.59075 27.1875 3.03587 27.1875 3.5V24.5C27.1875 24.9641 26.9965 25.4092 26.6566 25.7374C26.3167 26.0656 25.8557 26.25 25.375 26.25H3.625C3.14429 26.25 2.68328 26.0656 2.34337 25.7374C2.00346 25.4092 1.8125 24.9641 1.8125 24.5V3.5C1.8125 3.03587 2.00346 2.59075 2.34337 2.26256C2.68328 1.93437 3.14429 1.75 3.625 1.75ZM25.375 0C26.3364 0 27.2584 0.368749 27.9383 1.02513C28.6181 1.6815 29 2.57174 29 3.5V24.5C29 25.4283 28.6181 26.3185 27.9383 26.9749C27.2584 27.6313 26.3364 28 25.375 28H3.625C2.66359 28 1.74156 27.6313 1.06174 26.9749C0.381919 26.3185 0 25.4283 0 24.5V3.5C0 2.57174 0.381919 1.6815 1.06174 1.02513C1.74156 0.368749 2.66359 0 3.625 0L25.375 0Z" fill="black"/>
<path fill-rule="evenodd" clip-rule="evenodd" d="M9.0625 26.25V7H7.25V26.25H9.0625ZM0.90625 7H28.0938V5.25H0.90625V7ZM23.5625 11.375C23.5625 11.1429 23.467 10.9204 23.2971 10.7563C23.1271 10.5922 22.8966 10.5 22.6562 10.5H13.5938C13.3534 10.5 13.1229 10.5922 12.9529 10.7563C12.783 10.9204 12.6875 11.1429 12.6875 11.375C12.6875 11.6071 12.783 11.8296 12.9529 11.9937C13.1229 12.1578 13.3534 12.25 13.5938 12.25H22.6562C22.8966 12.25 23.1271 12.1578 23.2971 11.9937C23.467 11.8296 23.5625 11.6071 23.5625 11.375ZM23.5625 16.625C23.5625 16.3929 23.467 16.1704 23.2971 16.0063C23.1271 15.8422 22.8966 15.75 22.6562 15.75H13.5938C13.3534 15.75 13.1229 15.8422 12.9529 16.0063C12.783 16.1704 12.6875 16.3929 12.6875 16.625C12.6875 16.8571 12.783 17.0796 12.9529 17.2437C13.1229 17.4078 13.3534 17.5 13.5938 17.5H22.6562C22.8966 17.5 23.1271 17.4078 23.2971 17.2437C23.467 17.0796 23.5625 16.8571 23.5625 16.625ZM23.5625 21.875C23.5625 21.6429 23.467 21.4204 23.2971 21.2563C23.1271 21.0922 22.8966 21 22.6562 21H13.5938C13.3534 21 13.1229 21.0922 12.9529 21.2563C12.783 21.4204 12.6875 21.6429 12.6875 21.875C12.6875 22.1071 12.783 22.3296 12.9529 22.4937C13.1229 22.6578 13.3534 22.75 13.5938 22.75H22.6562C22.8966 22.75 23.1271 22.6578 23.2971 22.4937C23.467 22.3296 23.5625 22.1071 23.5625 21.875Z" fill="white"/>
</svg>
