<svg width="27" height="29" viewBox="0 0 27 29" fill="none" xmlns="http://www.w3.org/2000/svg">
<path fill-rule="evenodd" clip-rule="evenodd" d="M8.4375 20.8438C8.4375 20.6034 8.5264 20.3729 8.68463 20.2029C8.84286 20.033 9.05747 19.9375 9.28125 19.9375H24.4688C24.6925 19.9375 24.9071 20.033 25.0654 20.2029C25.2236 20.3729 25.3125 20.6034 25.3125 20.8438C25.3125 21.0841 25.2236 21.3146 25.0654 21.4846C24.9071 21.6545 24.6925 21.75 24.4688 21.75H9.28125C9.05747 21.75 8.84286 21.6545 8.68463 21.4846C8.5264 21.3146 8.4375 21.0841 8.4375 20.8438ZM8.4375 13.5938C8.4375 13.3534 8.5264 13.1229 8.68463 12.9529C8.84286 12.783 9.05747 12.6875 9.28125 12.6875H24.4688C24.6925 12.6875 24.9071 12.783 25.0654 12.9529C25.2236 13.1229 25.3125 13.3534 25.3125 13.5938C25.3125 13.8341 25.2236 14.0646 25.0654 14.2346C24.9071 14.4045 24.6925 14.5 24.4688 14.5H9.28125C9.05747 14.5 8.84286 14.4045 8.68463 14.2346C8.5264 14.0646 8.4375 13.8341 8.4375 13.5938ZM8.4375 6.34375C8.4375 6.1034 8.5264 5.87289 8.68463 5.70293C8.84286 5.53298 9.05747 5.4375 9.28125 5.4375H24.4688C24.6925 5.4375 24.9071 5.53298 25.0654 5.70293C25.2236 5.87289 25.3125 6.1034 25.3125 6.34375C25.3125 6.5841 25.2236 6.81461 25.0654 6.98457C24.9071 7.15452 24.6925 7.25 24.4688 7.25H9.28125C9.05747 7.25 8.84286 7.15452 8.68463 6.98457C8.5264 6.81461 8.4375 6.5841 8.4375 6.34375Z" fill="white"/>
<path d="M2.89069 21.5053V20.6462H3.375C3.74119 20.6462 3.98756 20.3978 3.98756 20.0716C3.98756 19.7363 3.72094 19.5097 3.37838 19.5097C3.00206 19.5097 2.75906 19.7852 2.74894 20.0716H1.75331C1.78031 19.2252 2.38275 18.6452 3.41719 18.6452C4.40944 18.6415 5.02706 19.1726 5.03213 19.9193C5.03532 20.1755 4.95354 20.4245 4.80141 20.6217C4.64929 20.819 4.43676 20.9517 4.20187 20.996V21.0558C4.46818 21.0771 4.71658 21.2079 4.89541 21.4209C5.07425 21.6339 5.16975 21.9128 5.16206 22.1995C5.16712 23.1655 4.31494 23.6495 3.3885 23.6495C2.2815 23.6495 1.701 22.9788 1.6875 22.2104H2.66963C2.68313 22.533 2.9835 22.765 3.38175 22.7704C3.81037 22.7704 4.09725 22.5076 4.09388 22.136C4.0905 21.7826 3.83231 21.5053 3.39525 21.5053H2.889H2.89069ZM2.88394 12.9883H1.86469V12.9249C1.86469 12.1854 2.3625 11.3952 3.48131 11.3952C4.46512 11.3952 5.10131 11.986 5.10131 12.7654C5.10131 13.4705 4.66762 13.8837 4.29806 14.3024L3.39188 15.3392V15.3935H5.1705V16.3125H1.92881V15.5965L3.54375 13.8022C3.77662 13.5448 4.03819 13.2512 4.03819 12.8814C4.03819 12.5552 3.79013 12.3014 3.46106 12.3014C3.3851 12.2984 3.30936 12.3122 3.23853 12.3418C3.1677 12.3714 3.10326 12.4163 3.04919 12.4737C2.99513 12.5311 2.95257 12.5998 2.92415 12.6755C2.89573 12.7512 2.88204 12.8324 2.88394 12.914V12.9883ZM4.32675 9.06247H3.25519V5.29972H3.20288L2.19375 6.06097V5.03328L3.25519 4.23035H4.32675V9.06247Z" fill="white"/>
</svg>
