<svg width="24" height="24" viewBox="0 0 24 24" fill="none" xmlns="http://www.w3.org/2000/svg">
<path fill-rule="evenodd" clip-rule="evenodd" d="M16.9393 1.93942C17.2205 1.65822 17.602 1.50024 17.9998 1.50024C18.3975 1.50024 18.779 1.65822 19.0603 1.93942L22.0603 4.93942C22.3415 5.22072 22.4994 5.60218 22.4994 5.99992C22.4994 6.39767 22.3415 6.77913 22.0603 7.06042L8.56025 20.5604C8.39603 20.7251 8.19576 20.8494 7.97525 20.9234L3.47525 22.4234C3.21087 22.5119 2.92705 22.525 2.65565 22.4612C2.38425 22.3974 2.13601 22.2592 1.93878 22.0621C1.74156 21.865 1.60316 21.6169 1.53913 21.3456C1.47509 21.0742 1.48795 20.7904 1.57625 20.5259L3.07625 16.0259C3.15005 15.8049 3.27434 15.6041 3.43925 15.4394L16.9393 1.93942ZM17.9998 2.99992L20.9998 5.99992L7.49975 19.4999L2.99975 20.9999L4.49975 16.4999L17.9998 2.99992Z" fill="black"/>
<path fill-rule="evenodd" clip-rule="evenodd" d="M18.219 9.53099L14.469 5.78099L15.531 4.71899L19.281 8.46899L18.2205 9.53099H18.219ZM4.5 15V15.75C4.5 15.9489 4.57902 16.1397 4.71967 16.2803C4.86032 16.421 5.05109 16.5 5.25 16.5H6V17.25C6 17.4489 6.07902 17.6397 6.21967 17.7803C6.36032 17.921 6.55109 18 6.75 18H7.5V18.75C7.5 18.9489 7.57902 19.1397 7.71967 19.2803C7.86032 19.421 8.05109 19.5 8.25 19.5H9V17.25C9 17.0511 8.92098 16.8603 8.78033 16.7197C8.63968 16.579 8.44891 16.5 8.25 16.5H7.5V15.75C7.5 15.5511 7.42098 15.3603 7.28033 15.2197C7.13968 15.079 6.94891 15 6.75 15H4.5Z" fill="black"/>
</svg>
