<svg width="19" height="19" viewBox="0 0 19 19" fill="none" xmlns="http://www.w3.org/2000/svg">
<g clip-path="url(#clip0_498_11786)">
<path fill-rule="evenodd" clip-rule="evenodd" d="M9.5 17.8125C11.7046 17.8125 13.8189 16.9367 15.3778 15.3778C16.9367 13.8189 17.8125 11.7046 17.8125 9.5C17.8125 7.29539 16.9367 5.18107 15.3778 3.62217C13.8189 2.06328 11.7046 1.1875 9.5 1.1875C7.29539 1.1875 5.18107 2.06328 3.62217 3.62217C2.06328 5.18107 1.1875 7.29539 1.1875 9.5C1.1875 11.7046 2.06328 13.8189 3.62217 15.3778C5.18107 16.9367 7.29539 17.8125 9.5 17.8125V17.8125ZM9.5 19C12.0196 19 14.4359 17.9991 16.2175 16.2175C17.9991 14.4359 19 12.0196 19 9.5C19 6.98044 17.9991 4.56408 16.2175 2.78249C14.4359 1.00089 12.0196 0 9.5 0C6.98044 0 4.56408 1.00089 2.78249 2.78249C1.00089 4.56408 0 6.98044 0 9.5C0 12.0196 1.00089 14.4359 2.78249 16.2175C4.56408 17.9991 6.98044 19 9.5 19V19Z" fill="black"/>
<path d="M6.23438 7.16419H7.80188C7.80188 6.23675 8.34575 5.52069 9.41687 5.52069C10.2303 5.52069 10.9761 5.928 10.9761 6.90769C10.9761 7.66175 10.5319 8.0085 9.83012 8.53575C9.03094 9.11644 8.398 9.7945 8.44313 10.8953L8.45144 11.4451H10.0035V11.0236C10.0035 10.1709 10.3277 9.92275 11.2029 9.25894C11.9261 8.70913 12.6801 8.09875 12.6801 6.81744C12.6801 5.02313 11.1649 4.15625 9.50594 4.15625C7.93131 4.15625 6.19756 4.92456 6.23556 7.16419H6.23438ZM8.08925 13.7144C8.08925 14.3474 8.59394 14.8153 9.28863 14.8153C10.0118 14.8153 10.5094 14.3474 10.5094 13.7144C10.5094 13.0589 10.0106 12.5982 9.28744 12.5982C8.59394 12.5982 8.08925 13.0589 8.08925 13.7144V13.7144Z" fill="black"/>
</g>
<defs>
<clipPath id="clip0_498_11786">
<path d="M0 9.5C0 4.2533 4.2533 0 9.5 0V0C14.7467 0 19 4.2533 19 9.5V9.5C19 14.7467 14.7467 19 9.5 19V19C4.2533 19 0 14.7467 0 9.5V9.5Z" fill="white"/>
</clipPath>
</defs>
</svg>
