<svg width="28" height="27" viewBox="0 0 28 27" fill="none" xmlns="http://www.w3.org/2000/svg">
<g clip-path="url(#clip0_400_11230)">
<path fill-rule="evenodd" clip-rule="evenodd" d="M14 25.3125C17.2489 25.3125 20.3647 24.068 22.6621 21.8527C24.9594 19.6374 26.25 16.6329 26.25 13.5C26.25 10.3671 24.9594 7.36257 22.6621 5.1473C20.3647 2.93203 17.2489 1.6875 14 1.6875C10.7511 1.6875 7.63526 2.93203 5.33794 5.1473C3.04062 7.36257 1.75 10.3671 1.75 13.5C1.75 16.6329 3.04062 19.6374 5.33794 21.8527C7.63526 24.068 10.7511 25.3125 14 25.3125ZM14 27C17.713 27 21.274 25.5777 23.8995 23.0459C26.525 20.5142 28 17.0804 28 13.5C28 9.91958 26.525 6.4858 23.8995 3.95406C21.274 1.42232 17.713 0 14 0C10.287 0 6.72601 1.42232 4.10051 3.95406C1.475 6.4858 0 9.91958 0 13.5C0 17.0804 1.475 20.5142 4.10051 23.0459C6.72601 25.5777 10.287 27 14 27Z" fill="black"/>
<path d="M9.1875 10.1807H11.4975C11.4975 8.86275 12.299 7.84519 13.8775 7.84519C15.0762 7.84519 16.1753 8.424 16.1753 9.81619C16.1753 10.8878 15.5208 11.3805 14.4865 12.1298C13.3087 12.9549 12.376 13.9185 12.4425 15.4828L12.4548 16.2641H14.742V15.6651C14.742 14.4534 15.2197 14.1008 16.5095 13.1574C17.5752 12.3761 18.6865 11.5088 18.6865 9.68794C18.6865 7.13813 16.4535 5.90625 14.0087 5.90625C11.6883 5.90625 9.13325 6.99806 9.18925 10.1807H9.1875ZM11.921 19.4889C11.921 20.3884 12.6648 21.0533 13.6885 21.0533C14.7543 21.0533 15.4875 20.3884 15.4875 19.4889C15.4875 18.5574 14.7525 17.9027 13.6868 17.9027C12.6648 17.9027 11.921 18.5574 11.921 19.4889Z" fill="white"/>
</g>
<defs>
<clipPath id="clip0_400_11230">
<rect width="28" height="27" fill="white"/>
</clipPath>
</defs>
</svg>
