<svg width="92" height="86" viewBox="0 0 92 86" fill="none" xmlns="http://www.w3.org/2000/svg">
<g clip-path="url(#clip0_1744_16438)">
<path fill-rule="evenodd" clip-rule="evenodd" d="M46 80.625C56.675 80.625 66.9127 76.6609 74.461 69.6049C82.0094 62.5488 86.25 52.9788 86.25 43C86.25 33.0212 82.0094 23.4512 74.461 16.3951C66.9127 9.33905 56.675 5.375 46 5.375C35.325 5.375 25.0873 9.33905 17.539 16.3951C9.99061 23.4512 5.75 33.0212 5.75 43C5.75 52.9788 9.99061 62.5488 17.539 69.6049C25.0873 76.6609 35.325 80.625 46 80.625ZM46 86C58.2 86 69.9002 81.4697 78.5269 73.4056C87.1536 65.3415 92 54.4043 92 43C92 31.5957 87.1536 20.6585 78.5269 12.5944C69.9002 4.53034 58.2 0 46 0C33.8 0 22.0998 4.53034 13.4731 12.5944C4.84642 20.6585 0 31.5957 0 43C0 54.4043 4.84642 65.3415 13.4731 73.4056C22.0998 81.4697 33.8 86 46 86Z" fill="#C70F0F"/>
<path fill-rule="evenodd" clip-rule="evenodd" d="M68.1602 22.2856C68.428 22.5353 68.6404 22.8319 68.7853 23.1584C68.9303 23.4849 69.0049 23.8349 69.0049 24.1884C69.0049 24.5419 68.9303 24.8919 68.7853 25.2184C68.6404 25.5449 68.428 25.8415 68.1602 26.0911L27.9102 63.7161C27.3704 64.2208 26.6382 64.5043 25.8747 64.5043C25.1113 64.5043 24.3791 64.2208 23.8392 63.7161C23.2994 63.2115 22.9961 62.5271 22.9961 61.8134C22.9961 61.0997 23.2994 60.4153 23.8392 59.9106L64.0892 22.2856C64.3563 22.0354 64.6735 21.8368 65.0228 21.7013C65.3721 21.5658 65.7466 21.4961 66.1247 21.4961C66.5029 21.4961 66.8773 21.5658 67.2266 21.7013C67.5759 21.8368 67.8932 22.0354 68.1602 22.2856Z" fill="#C70F0F"/>
</g>
<defs>
<clipPath id="clip0_1744_16438">
<rect width="92" height="86" fill="white"/>
</clipPath>
</defs>
</svg>
