<svg width="23" height="23" viewBox="0 0 23 23" fill="none" xmlns="http://www.w3.org/2000/svg">
<path fill-rule="evenodd" clip-rule="evenodd" d="M11.4997 4.79297C6.70801 4.79297 2.61592 7.77339 0.958008 11.9805C2.61592 16.1876 6.70801 19.168 11.4997 19.168C16.2913 19.168 20.3834 16.1876 22.0413 11.9805C20.3834 7.77339 16.2913 4.79297 11.4997 4.79297ZM11.4997 16.7721C8.85467 16.7721 6.70801 14.6255 6.70801 11.9805C6.70801 9.33547 8.85467 7.1888 11.4997 7.1888C14.1447 7.1888 16.2913 9.33547 16.2913 11.9805C16.2913 14.6255 14.1447 16.7721 11.4997 16.7721ZM11.4997 9.10547C9.90884 9.10547 8.62467 10.3896 8.62467 11.9805C8.62467 13.5713 9.90884 14.8555 11.4997 14.8555C13.0905 14.8555 14.3747 13.5713 14.3747 11.9805C14.3747 10.3896 13.0905 9.10547 11.4997 9.10547Z" fill="black" fill-opacity="0.87"/>
</svg>
